<?xml version="1.0" encoding="UTF-8"?>
<svg width="192px" height="192px" viewBox="0 0 192 192" version="1.1" xmlns="http://www.w3.org/2000/svg" xmlns:xlink="http://www.w3.org/1999/xlink">
    <title>Artboard</title>
    <g id="Artboard" stroke="none" stroke-width="1" fill="none" fill-rule="evenodd">
        <g id="logo" transform="translate(0.000000, -0.000000)" fill-rule="nonzero">
            <g id="Layer_3" transform="translate(0.000000, 6.000000)" fill="#F03812">
                <path d="M19.3888525,0.188255034 L172.611148,0.188255034 C182.998033,0.188255034 191.433443,8.59697987 191.433443,18.9510067 L191.433443,167.986242 C191.433443,178.340268 182.998033,186.748993 172.611148,186.748993 L19.3888525,186.748993 C9.00196721,186.748993 0.566557377,178.340268 0.566557377,167.986242 L0.566557377,18.9510067 C0.566557377,8.59697987 9.00196721,0.188255034 19.3888525,0.188255034 Z" id="Path"></path>
            </g>
            <g id="Layer_9" transform="translate(1.000000, 0.000000)" fill="#F03812">
                <path d="M96,0.435135135 L48.4392157,0.435135135 L13.1137255,6.65135135 C8.40784314,7.45945946 4.45490196,10.7540541 2.82352941,15.2297297 L0.125490196,22.5648649 L96,22.5648649 L96,0.435135135 Z" id="Path"></path>
            </g>
            <g id="Layer_6" transform="translate(95.000000, 0.000000)" fill="#F03812">
                <path d="M0,0.435135135 L47.4980392,0.435135135 L82.8235294,6.65135135 C87.5294118,7.45945946 91.4823529,10.7540541 93.1137255,15.2297297 L95.8117647,22.5648649 L0,22.5648649 L0,0.435135135 Z" id="Path"></path>
            </g>
            <g id="Layer_8" transform="translate(11.000000, 133.000000)" fill="#B21236">
                <path d="M173.180435,52.1233333 C173.180435,50.6033333 172.991304,49.0833333 172.676087,47.6266667 L158.617391,18.7466667 L157.356522,16.0866667 C156.978261,15.3266667 156.6,14.5666667 156.221739,13.87 C151.871739,5.25666667 144.054348,0.0633333333 135.732609,0.126666667 L86.873913,0.76 L38.0152174,0.126666667 C29.6304348,1.38777878e-17 21.876087,5.25666667 17.526087,13.87 C17.1478261,14.5666667 16.7065217,15.3266667 16.3913043,16.0866667 L15.1304348,18.7466667 L1.00869565,47.6266667 C0.693478261,49.0833333 0.504347826,50.6033333 0.504347826,52.1233333 L0.504347826,52.3133333 C0.504347826,52.7566667 0.504347826,53.2633333 0.504347826,53.7066667 C0.567391304,53.8333333 0.630434783,53.96 0.693478261,54.0866667 C0.756521739,54.4666667 0.882608696,54.7833333 1.00869565,55.1 L1.07173913,55.1 C1.13478261,55.1633333 1.13478261,55.1633333 1.19782609,55.2266667 C1.26086957,55.29 1.32391304,55.48 1.38695652,55.6066667 C1.95434783,56.1133333 2.71086957,56.43 3.53043478,56.43 L170.469565,56.43 C171.226087,56.43 171.982609,56.1133333 172.613043,55.6066667 C172.676087,55.48 172.73913,55.3533333 172.802174,55.2266667 C172.865217,55.1 172.865217,55.1633333 172.928261,55.1 L172.991304,55.1 C173.117391,54.7833333 173.243478,54.4033333 173.306522,54.0866667 C173.369565,53.96 173.369565,53.8333333 173.432609,53.7066667 C173.432609,53.2633333 173.432609,52.7566667 173.432609,52.3133333 L173.432609,52.1233333 L173.180435,52.1233333 Z" id="Path"></path>
            </g>
            <g id="Layer_5" transform="translate(29.000000, 0.000000)" fill="#F6882D" stroke="#F6882D">
                <path d="M19.32,0.440416667 L118.68,0.440416667 C129.03,0.440416667 137.435455,8.87125 137.435455,19.2525 L137.435455,131.93625 C137.435455,142.3175 129.03,150.748333 118.68,150.748333 L19.32,150.748333 C8.97,150.748333 0.564196641,142.3175 0.564196641,131.93625 L0.564196641,19.3154167 C0.501818182,8.87125 8.90727273,0.440416667 19.32,0.440416667 Z" id="Path"></path>
            </g>
            <g id="Layer_10" transform="translate(43.000000, 32.000000)">
                <polygon id="Path" fill="#FEB26A" points="82.9425287 43.7858974 84.4597701 71.3641026 67.9597701 51.8269231 0.252873563 0.0628205128"></polygon>
                <polygon id="Path" fill="#FE9D48" points="67.9597701 51.8269231 84.4597701 71.3641026 66.8218391 58.6115385"></polygon>
                <polygon id="Path" fill="#FFDBAC" points="109.431034 30.5307692 82.9425287 43.7858974 0.252873563 0.0628205128"></polygon>
                <polygon id="Path" fill="#FFDBAC" points="67.9597701 51.8269231 66.8218391 58.6115385 59.9310345 97.9371795 0.252873563 0.0628205128"></polygon>
            </g>
        </g>
    </g>
</svg>