<?xml version="1.0" encoding="utf-8"?>
<!-- Generator: Adobe Illustrator 24.2.0, SVG Export Plug-In . SVG Version: 6.00 Build 0)  -->
<svg version="1.1" id="Layer_1" xmlns="http://www.w3.org/2000/svg" xmlns:xlink="http://www.w3.org/1999/xlink" x="0px" y="0px"
	 viewBox="0 0 600 600" style="enable-background:new 0 0 600 600;" xml:space="preserve">
<style type="text/css">
	.st0{fill:#F03812;}
	.st1{fill:#B21236;}
	.st2{fill:#F6882D;stroke:#F6882D;stroke-miterlimit:10;}
	.st3{fill:#FEB26A;}
	.st4{fill:#FE9D48;}
	.st5{fill:#FFDBAC;}
</style>
<g id="Layer_3">
	<path class="st0" d="M179.8,161.3h243.4c16.5,0,29.9,13.4,29.9,29.9v237.5c0,16.5-13.4,29.9-29.9,29.9H179.8
		c-16.5,0-29.9-13.4-29.9-29.9V191.2C149.9,174.7,163.3,161.3,179.8,161.3z"/>
</g>
<g id="Layer_9">
	<path class="st0" d="M304,152.7h-75.8l-56.3,10c-7.5,1.3-13.8,6.6-16.4,13.8l-4.3,11.8H304V152.7z"/>
</g>
<g id="Layer_6">
	<path class="st0" d="M300,152.7h75.7l56.3,10c7.5,1.3,13.8,6.6,16.4,13.8l4.3,11.8H300V152.7z"/>
</g>
<g id="Layer_8">
	<path class="st1" d="M440.7,446.3c0-2.4-0.3-4.8-0.8-7.1l-22.3-45.6l-2-4.2c-0.6-1.2-1.2-2.4-1.8-3.5
		c-6.9-13.6-19.3-21.8-32.5-21.7l-77.5,1l-77.5-1c-13.3-0.2-25.6,8.1-32.5,21.7c-0.6,1.1-1.3,2.3-1.8,3.5l-2,4.2l-22.4,45.6
		c-0.5,2.3-0.8,4.7-0.8,7.1v0.3c0,0.7,0,1.5,0,2.2c0.1,0.2,0.2,0.4,0.3,0.6c0.1,0.6,0.3,1.1,0.5,1.6h0.1c0.1,0.1,0.1,0.1,0.2,0.2
		s0.2,0.4,0.3,0.6c0.9,0.8,2.1,1.3,3.4,1.3h264.8c1.2,0,2.4-0.5,3.4-1.3c0.1-0.2,0.2-0.4,0.3-0.6s0.1-0.1,0.2-0.2h0.1
		c0.2-0.5,0.4-1.1,0.5-1.6c0.1-0.2,0.1-0.4,0.2-0.6c0-0.7,0-1.5,0-2.2V446.3z"/>
</g>
<g id="Layer_5">
	<path class="st2" d="M224.8,152.7h158.4c16.5,0,29.9,13.4,29.9,29.9v179.1c0,16.5-13.4,29.9-29.9,29.9H224.8
		c-16.5,0-29.9-13.4-29.9-29.9V182.7C194.8,166.1,208.2,152.7,224.8,152.7z"/>
</g>
<g id="Layer_10">
	<polygon class="st3" points="348.2,272.7 350.6,316.6 324.5,285.5 217.4,203.1 	"/>
	<polygon class="st4" points="324.5,285.5 350.6,316.6 322.7,296.3 	"/>
	<polygon class="st5" points="390.1,251.6 348.2,272.7 217.4,203.1 	"/>
	<polygon class="st5" points="324.5,285.5 322.7,296.3 311.8,358.9 217.4,203.1 	"/>
</g>
</svg>
