<svg width="69" height="71" viewBox="0 0 69 71" fill="none" xmlns="http://www.w3.org/2000/svg">
<path d="M39.3242 71C38.3632 70.8459 37.4791 70.3067 36.6911 69.4017C35.8839 68.4966 35.4995 67.4567 35.4995 66.2821C35.4995 64.9919 36.3067 61.7182 37.902 56.4226C38.171 55.0361 38.7476 53.2452 39.6702 51.0499C39.9969 50.1448 40.1699 49.6056 40.2276 49.4516C41.1886 46.2357 42.4956 42.3073 44.1485 37.6664L44.8596 35.7407C46.724 30.6569 47.8387 27.5565 48.2231 26.4396L49.5109 22.9156C49.5109 22.492 49.7992 22.0876 50.395 21.7217C51.0293 21.2981 51.5674 21.0862 51.9903 21.0862C52.8359 21.0862 53.6624 21.6447 54.4696 22.7616C55.2769 23.8785 55.6997 25.0532 55.7574 26.2856C55.7574 26.9211 55.6229 27.518 55.3538 28.0572C54.1237 30.7339 52.6053 34.8741 50.7986 40.4779C49.9914 42.8272 49.0112 45.0803 48.2039 47.2178C47.3967 49.2975 46.7432 50.8188 46.3588 51.7817L45.59 53.7073L44.283 57.7128C44.283 57.8668 44.2638 58.0016 44.2061 58.1172C44.1485 58.2327 44.1293 58.3097 44.1293 58.3482C44.1293 58.5023 44.1485 58.5793 44.2061 58.5793L45.763 57.2121C47.3006 55.6715 49.1457 54.0925 51.2791 52.4749C53.0474 51.2425 53.4702 50.7803 53.6624 50.5877C53.7969 50.4529 54.2582 49.9908 54.6426 49.6634L55.4499 49.0279C57.1605 47.7955 59.0056 47.1793 60.966 47.1793C61.5619 47.1793 62.2538 47.4681 63.0418 48.0651C63.849 48.662 64.5025 49.4901 65.0407 50.5492C65.6365 51.5698 65.9248 52.6675 65.9248 53.8421V54.4776V55.0361C65.9248 56.3648 65.6557 58.1364 65.1176 60.3317C64.6371 62.4692 64.368 63.7016 64.3103 64.029C64.5794 64.029 64.983 63.9712 65.502 63.875C66.3092 63.875 66.8666 63.952 67.1741 64.106C67.5393 64.2601 67.866 64.4719 68.1351 64.7415C68.4042 65.0111 68.6348 65.1652 68.8463 65.2229C68.9616 65.3385 69 65.4925 69 65.7044C69 66.9368 68.3273 67.9959 67.0011 68.9202C65.6749 69.8253 64.3872 70.3453 63.1571 70.4415C61.6579 70.4415 60.4663 69.8831 59.563 68.7662C58.6596 67.6493 58.1983 66.2821 58.1983 64.6837C58.1983 64.0483 58.2176 63.3935 58.2752 62.7581C58.3329 62.1226 58.3905 61.5641 58.429 61.0827C58.5827 60.0043 58.6596 59.157 58.6596 58.5216C58.6596 57.8283 58.5827 57.3661 58.429 57.1543C58.3137 56.8847 58.1022 56.7499 57.7947 56.7499C56.7184 56.7499 54.854 57.732 52.2017 59.7155C49.5878 61.6412 46.9162 64.1446 44.2061 67.2449C42.4956 69.729 40.8618 71 39.3242 71Z" fill="black"/>
<path d="M3.84401 49.9523C2.88301 49.7982 1.99889 49.259 1.21086 48.3539C0.403621 47.4296 0 46.3897 0 45.2151C0 43.9249 0.807242 40.6512 2.40251 35.3556C2.67159 33.9691 3.24819 32.1782 4.17075 29.9829C4.49749 29.0778 4.67047 28.5386 4.72813 28.3846C5.68914 25.1687 6.9961 21.2403 8.64903 16.5994L9.36017 14.6737C11.2245 9.58991 12.3393 6.48956 12.7237 5.37266L14.0114 1.84866C14.0114 1.42501 14.2997 1.02061 14.8955 0.654733C15.5298 0.211825 16.0487 0 16.4908 0C17.3365 0 18.163 0.558448 18.9702 1.67535C19.7774 2.79224 20.2003 3.96691 20.2579 5.19935C20.2579 5.83482 20.1234 6.43179 19.8543 6.97098C18.6242 9.64768 17.1059 13.7879 15.2799 19.4109C14.4727 21.7602 13.6847 24.0133 12.8774 26.1508C12.0702 28.2305 11.3014 29.617 10.9554 30.6376L10.3404 32.313L8.95655 36.665C8.95655 36.8191 8.93733 36.9539 8.87967 37.0694C8.82201 37.185 8.80279 37.262 8.80279 37.3005C8.80279 37.4546 8.82201 37.5316 8.87967 37.5316L10.2443 36.1644C11.7819 34.6238 13.627 33.0447 15.7604 31.4272C17.5287 30.1947 18.1053 29.7133 18.2206 29.5978C18.3359 29.463 18.8549 29.0393 19.1816 28.6349L19.9312 27.9802C21.6418 26.7478 23.4869 26.1315 25.4474 26.1315C26.0432 26.1315 26.7351 26.4204 27.5231 27.0174C28.3304 27.6143 28.9838 28.4424 29.522 29.5015C30.1178 30.5221 30.4061 31.6197 30.4061 32.7944V33.4299V33.9883C30.4061 35.3171 30.137 37.0887 29.5989 39.284C29.1184 41.4215 28.8493 42.6539 28.7916 42.9813C29.0607 42.9813 29.4643 42.9235 29.9833 42.8272C30.7905 42.8272 31.3479 42.9043 31.6554 43.0583C32.0206 43.2124 32.3474 43.4242 32.6164 43.6938C32.8855 43.9634 33.1162 44.1174 33.3276 44.1752C33.4429 44.2907 33.4813 44.4448 33.4813 44.6566C33.4813 45.8891 32.8086 46.9482 31.4825 47.8725C30.1563 48.7776 28.8685 49.2975 27.6384 49.3938C26.1393 49.3938 24.9476 48.8354 24.0443 47.7185C23.1409 46.6016 22.6797 45.2343 22.6797 43.636C22.6797 43.0005 22.6989 42.3458 22.7565 41.7103C22.8142 41.0749 22.8719 40.5164 22.9103 40.035C23.0641 38.9566 23.1409 38.1093 23.1409 37.4738C23.1409 36.7806 23.0641 36.3184 22.9103 36.1066C22.795 35.837 22.5836 35.7022 22.276 35.7022C21.1997 35.7022 19.3354 36.6843 16.683 38.6677C14.0691 40.5934 11.3975 43.0968 8.68747 46.1972C7.01532 48.7006 5.38162 49.9523 3.84401 49.9523Z" fill="black"/>
</svg>
