<?xml version="1.0" encoding="utf-8"?>
<!-- Generator: Adobe Illustrator 23.0.6, SVG Export Plug-In . SVG Version: 6.00 Build 0)  -->
<svg version="1.1" id="Layer_1" xmlns="http://www.w3.org/2000/svg" xmlns:xlink="http://www.w3.org/1999/xlink" x="0px" y="0px"
	 viewBox="0 0 16 16" style="enable-background:new 0 0 16 16;" xml:space="preserve">
<style type="text/css">
	.st0{fill:#231F1B;}
</style>
<title>Asset 1</title>
<g>
	<g id="Layer_1-2_1_">
		<path class="st0" d="M4.1,8.8v6.6c0,0,0,0.1-0.1,0.1l0,0H1.7c0,0-0.1,0-0.1-0.1l0,0V8.8c0,0,0-0.1-0.1-0.1l0,0H0.1
			c0,0-0.1,0-0.1-0.1v-2c0,0,0-0.1,0.1-0.1h1.4c0,0,0.1,0,0.1-0.1l0,0V3.7c0,0,0-0.1,0.1-0.1H4c0,0,0.1,0,0.1,0.1v2.9
			c0,0,0,0.1,0.1,0.1h1.5c0,0,0.1,0,0.1,0.1v2c0,0,0,0.1-0.1,0.1l0,0L4.1,8.8C4.2,8.7,4.1,8.8,4.1,8.8z"/>
		<path class="st0" d="M7.5,0.5h2.3c0,0,0.1,0,0.1,0.1v6.9c0,0,0,0.1,0.1,0.1s0,0,0,0c0.6-0.8,1.6-1.2,2.6-1.2s2,0.3,2.6,1.1
			C15.8,8.1,16.1,9,16,9.9v5.5c0,0,0,0.1-0.1,0.1h-2.3c0,0-0.1,0-0.1-0.1v-4.7c0-0.5,0-1.3-0.5-1.7c-0.3-0.3-0.7-0.5-1.2-0.5
			c-0.6,0-1.2,0.3-1.5,0.8S9.9,10.4,9.9,11v4.4c0,0,0,0.1-0.1,0.1H7.5c0,0-0.1,0-0.1-0.1V0.6C7.5,0.6,7.5,0.5,7.5,0.5z"/>
	</g>
</g>
</svg>
