<?xml version="1.0" encoding="utf-8"?>
<!-- Generator: Adobe Illustrator 23.0.1, SVG Export Plug-In . SVG Version: 6.00 Build 0)  -->
<svg version="1.1" id="Layer_1" xmlns="http://www.w3.org/2000/svg" xmlns:xlink="http://www.w3.org/1999/xlink" x="0px" y="0px"
	 viewBox="0 0 37.6 35" style="enable-background:new 0 0 37.6 35;" xml:space="preserve">
<style type="text/css">
	.st0{fill:#3E688C;}
	.st1{fill:#F27B93;}
</style>
<title>Asset 1</title>
<g>
	<g id="Layer_1-2">
		<path class="st0" d="M9.7,19.4v15.4c0,0.1-0.1,0.2-0.2,0.2c0,0,0,0,0,0H4c-0.1,0-0.2-0.1-0.2-0.2l0,0V19.4c0-0.1-0.1-0.2-0.2-0.2
			c0,0,0,0,0,0H0.2C0.1,19.2,0,19.1,0,19v-4.6c0-0.1,0.1-0.2,0.2-0.2h3.4c0.1,0,0.2-0.1,0.2-0.2c0,0,0,0,0,0V7.3
			c0-0.1,0.1-0.2,0.2-0.2h5.5c0.1,0,0.2,0.1,0.2,0.2V14c0,0.1,0.1,0.2,0.2,0.2h3.6c0.1,0,0.2,0.1,0.2,0.2V19c0,0.1-0.1,0.2-0.2,0.2
			c0,0,0,0,0,0H9.9C9.8,19.2,9.7,19.3,9.7,19.4z"/>
		<path class="st1" d="M17.7,0h5.5c0.1,0,0.2,0.1,0.2,0.2v16.1c0,0.1,0.1,0.2,0.2,0.2c0.1,0,0.1,0,0.1-0.1c1.5-1.9,3.7-2.9,6.1-2.9
			c2.3-0.1,4.6,0.8,6.1,2.5c1.2,1.7,1.8,3.8,1.6,5.9v12.9c0,0.1-0.1,0.2-0.2,0.2h-5.5c-0.1,0-0.2-0.1-0.2-0.2V23.7
			c0-1.2,0-3-1.1-4.1c-0.7-0.7-1.7-1.1-2.7-1.1c-1.4-0.1-2.8,0.6-3.6,1.8c-0.7,1.2-1,2.6-0.9,4v10.4c0,0.1-0.1,0.2-0.2,0.2h-5.5
			c-0.1,0-0.2-0.1-0.2-0.2V0.2C17.5,0.1,17.6,0,17.7,0z"/>
	</g>
</g>
</svg>
