<svg xmlns="http://www.w3.org/2000/svg" viewBox="0 0 79.97 79.97"><defs><style>.cls-1{fill:none;}.cls-2{fill:#2dbfc7;}.cls-3{fill:#082f40;}.cls-4{fill:#ebe9d8;}</style></defs><title>Asset 6HowdyHack_logoAlone</title><g id="Layer_2" data-name="Layer 2"><g id="Layer_1-2" data-name="Layer 1"><line class="cls-1" x1="5.43" y1="21.26" x2="5.43" y2="13.46"/><line class="cls-1" x1="24.31" y1="39.99" x2="17.09" y2="42.91"/><circle class="cls-2" cx="39.95" cy="39.99" r="27.04"/><path class="cls-3" d="M31.78,42.57H48.11c3.6,0,3.6-5.59,0-5.59H31.78c-3.6,0-3.6,5.59,0,5.59Z"/><path class="cls-3" d="M29,23.25v33c0,3.6,5.59,3.61,5.59,0v-33c0-3.6-5.59-3.6-5.59,0Z"/><path class="cls-3" d="M45.31,23.25v33c0,3.6,5.59,3.61,5.59,0v-33c0-3.6-5.59-3.6-5.59,0Z"/><path class="cls-3" d="M48.85,26l8.6-1.37a2.82,2.82,0,0,0,2-3.44,2.87,2.87,0,0,0-3.44-2l-8.61,1.38a2.81,2.81,0,0,0-2,3.44A2.86,2.86,0,0,0,48.85,26Z"/><path class="cls-3" d="M19.39,20.77c-.22,4.05-6.31,4.08-6.31,0s6.09-4,6.31,0c.19,3.58,5.79,3.61,5.59,0C24.73,16,21.18,12,16.23,12a8.74,8.74,0,0,0-.32,17.48c5.07.22,8.81-3.88,9.07-8.73C25.18,17.17,19.58,17.18,19.39,20.77Z"/><path class="cls-3" d="M19.24,59.56c-.22,4-6.31,4.08-6.31,0s6.09-4,6.31,0c.19,3.58,5.79,3.6,5.59,0-.25-4.74-3.8-8.75-8.74-8.75a8.74,8.74,0,0,0-.33,17.48c5.07.22,8.81-3.88,9.07-8.73C25,56,19.43,56,19.24,59.56Z"/><path class="cls-3" d="M66.82,59.12c-.22,4-6.31,4.07-6.31,0s6.09-4,6.31,0c.19,3.58,5.79,3.6,5.59,0-.25-4.74-3.8-8.75-8.75-8.75a8.74,8.74,0,0,0-.32,17.48c5.07.21,8.81-3.88,9.07-8.73C72.61,55.52,67,55.53,66.82,59.12Z"/><path class="cls-3" d="M66.82,20.77c-.22,4.05-6.31,4.08-6.31,0s6.09-4,6.31,0c.19,3.58,5.79,3.61,5.59,0C72.16,16,68.61,12,63.66,12a8.74,8.74,0,0,0-.32,17.48c5.07.22,8.81-3.88,9.07-8.73C72.61,17.17,67,17.18,66.82,20.77Z"/><path class="cls-3" d="M23.84,61.14l8.61-1.37a2.82,2.82,0,0,0,1.95-3.45,2.86,2.86,0,0,0-3.44-2l-8.6,1.37a2.82,2.82,0,0,0-2,3.44,2.87,2.87,0,0,0,3.44,2Z"/><path class="cls-3" d="M57.45,55.31l-8.6-1.37a2.88,2.88,0,0,0-3.44,2,2.81,2.81,0,0,0,2,3.44L56,60.71a2.89,2.89,0,0,0,3.44-2,2.82,2.82,0,0,0-2-3.44Z"/><path class="cls-3" d="M32.6,20.56,24,19.19a2.88,2.88,0,0,0-3.44,2,2.81,2.81,0,0,0,1.95,3.44L31.11,26A2.88,2.88,0,0,0,34.55,24a2.82,2.82,0,0,0-1.95-3.45Z"/><circle class="cls-4" cx="24.68" cy="33.36" r="2.13"/><circle class="cls-4" cx="24.68" cy="39.86" r="2.13"/><circle class="cls-4" cx="24.68" cy="46.18" r="2.13"/><path class="cls-3" d="M74.32,40c-.26,14.26-8.92,27.33-22.49,32.27a34.38,34.38,0,0,1-41.34-50,34.66,34.66,0,0,1,36.2-16A34.79,34.79,0,0,1,74.32,40c.07,3.63,5.72,3.64,5.65,0A40.6,40.6,0,0,0,54,2.5,40,40,0,0,0,5.61,60.57,40.47,40.47,0,0,0,47.53,79.29C66.39,75.77,79.62,58.87,80,40,80,36.35,74.39,36.35,74.32,40Z"/></g></g></svg>