<?xml version="1.0" encoding="utf-8"?>
<!-- Generator: Adobe Illustrator 23.0.1, SVG Export Plug-In . SVG Version: 6.00 Build 0)  -->
<svg version="1.1" id="Layer_1" xmlns="http://www.w3.org/2000/svg" xmlns:xlink="http://www.w3.org/1999/xlink" x="0px" y="0px"
	 viewBox="0 0 102 102.2" style="enable-background:new 0 0 102 102.2;" xml:space="preserve">
<style type="text/css">
	.st0{fill:#69A2CC;}
	.st1{fill:#273954;}
</style>
<path class="st0" d="M51,17.1c-19,0-34.4,15.4-34.4,34.4C16.6,70.6,32,86,51,86s34.4-15.4,34.4-34.4S70,17.1,51,17.1z M31.6,62.2
	c-1.5,0-2.7-1.2-2.7-2.7s1.2-2.7,2.7-2.7c1.5,0,2.7,1.2,2.7,2.7S33.1,62.2,31.6,62.2z M31.6,54.1c-1.5,0-2.7-1.2-2.7-2.7
	s1.2-2.7,2.7-2.7c1.5,0,2.7,1.2,2.7,2.7C34.3,52.9,33.1,54.1,31.6,54.1z M31.6,45.9c-1.5,0-2.7-1.2-2.7-2.7s1.2-2.7,2.7-2.7
	c1.5,0,2.7,1.2,2.7,2.7S33.1,45.9,31.6,45.9z"/>
<title>Asset 1HowdyHack_logo</title>
<g>
	<g id="Layer_1-2">
		<path class="st1" d="M40.6,54.9h20.8c4.6,0,4.6-7.1,0-7.1H40.6C36,47.7,36,54.9,40.6,54.9z"/>
		<path class="st1" d="M37,30.3v42.1c0,4.6,7.1,4.6,7.1,0V30.3C44.2,25.7,37,25.7,37,30.3z"/>
		<path class="st1" d="M57.8,30.3v42.1c0,4.6,7.1,4.6,7.1,0V30.3C65,25.7,57.8,25.7,57.8,30.3z"/>
		<path class="st1" d="M62.4,33.7l11-1.8c1.9-0.3,3-2.7,2.5-4.4c-0.6-1.9-2.5-3-4.4-2.5l-11,1.8c-1.9,0.3-3,2.7-2.5,4.4
			C58.5,33.1,60.5,34.2,62.4,33.7z"/>
		<path class="st1" d="M24.8,27.1c-0.3,5.2-8,5.2-8,0S24.6,21.9,24.8,27.1c0.2,4.6,7.4,4.6,7.1,0c-0.3-6-4.8-11.1-11.1-11.1
			c-6.1,0-11.1,5-11.1,11.1c0.1,6,4.8,10.8,10.7,11.1c6.5,0.3,11.2-5,11.6-11.1C32.2,22.5,25.1,22.5,24.8,27.1z"/>
		<path class="st1" d="M24.6,76.5c-0.3,5.2-8,5.2-8,0S24.4,71.4,24.6,76.5c0.2,4.6,7.4,4.6,7.1,0c-0.3-6-4.8-11.1-11.1-11.1
			c-6.1-0.1-11.2,4.8-11.3,10.9s4.8,11.2,10.9,11.3l0,0c6.5,0.3,11.2-4.9,11.6-11.1C32,71.9,24.9,71.9,24.6,76.5z"/>
		<path class="st1" d="M85.2,76c-0.3,5.2-8,5.2-8,0S85,70.8,85.2,76c0.2,4.6,7.4,4.6,7.1,0c-0.3-6-4.9-11.2-11.1-11.2
			s-11.1,5-11.1,11.2c0,5.9,4.7,10.8,10.7,11.1c6.5,0.3,11.2-5,11.6-11.1C92.6,71.3,85.5,71.3,85.2,76z"/>
		<path class="st1" d="M85.2,27.1c-0.3,5.2-8,5.2-8,0S85,21.9,85.2,27.1c0.2,4.6,7.4,4.6,7.1,0C92,21.1,87.5,16,81.2,16
			c-6.2,0-11.1,5-11.1,11.2c0,5.9,4.7,10.8,10.7,11.1c6.5,0.3,11.2-5,11.6-11.1C92.6,22.5,85.5,22.5,85.2,27.1z"/>
		<path class="st1" d="M30.5,78.5l11-1.8c1.9-0.3,3-2.7,2.5-4.4c-0.6-1.9-2.5-3-4.4-2.5l-11,1.8c-1.9,0.3-3,2.7-2.5,4.4
			C26.7,77.9,28.6,79,30.5,78.5z"/>
		<path class="st1" d="M73.3,71.1l-11-1.8c-1.9-0.5-3.8,0.6-4.4,2.5c-0.5,1.7,0.6,4.1,2.5,4.4l11,1.8c1.9,0.5,3.8-0.6,4.4-2.5
			C76.3,73.8,75.2,71.4,73.3,71.1z"/>
		<path class="st1" d="M41.6,26.8l-11-1.8c-1.9-0.5-3.8,0.6-4.4,2.5c-0.5,1.7,0.6,4.1,2.5,4.4l11,1.8c1.9,0.5,3.8-0.6,4.4-2.5
			C44.6,29.5,43.5,27.1,41.6,26.8L41.6,26.8z"/>
		<path class="st1" d="M94.8,51.3c-0.3,18.2-11.5,35-28.8,41.2c-22.7,8.3-47.9-3.4-56.2-26.1C5.3,54,6.6,40.2,13.4,28.8
			C25.8,8,52.7,1.2,73.4,13.6C86.7,21.6,94.8,35.9,94.8,51.3c0.1,4.6,7.3,4.6,7.2,0c0-28.2-22.8-51-50.9-51.1S0,23,0,51.2
			c0,9.2,2.5,18.3,7.2,26.2c11,18.2,32.1,27.7,53,24c24.2-4.2,41.5-25.9,41.8-50.2C102.1,46.7,94.9,46.7,94.8,51.3z"/>
	</g>
</g>
</svg>
